<?xml version="1.0" encoding="utf-8"?>
<svg xmlns="http://www.w3.org/2000/svg" viewBox="68.129 18.1649 477.8539 477.455" width="477.854px" height="477.455px">
  <defs>
    <style type="text/css">
	.st0{fill:#198FD9;}
	.st1{fill:#FFFFFF;}
</style>
  </defs>
  <path class="st0" d="M77.8,324.2C37.5,186.6,127.4,44,268.5,21.3C398.7,0.2,520.6,87.8,542.7,218c21.3,126.1-63.3,248.7-188.4,273 C231.7,514.9,114.2,444.1,77.8,324.2 M424.9,396.4c20.3-18.6,35.8-40.7,45.6-66.3c10.1-26.3,14.3-53.5,11.8-81.8 c-1.4-15.6-4.1-30.8-8.8-45.6c-10.7-33.6-31.8-59.9-58.7-81.7c-28.4-23.1-62.2-32.8-98-35.7c-17.9-1.5-35.8,0.3-53.3,4.7 c-43.3,10.8-77.7,34.7-103.7,70.9c-14.5,20.2-23.4,43-28.6,67.1c-1.4,6.7-1.7,13.6-2.6,20.9c16.4,0,32.1,0.1,47.7-0.2 c1.2,0,3.2-2.1,3.5-3.6c1.2-4.6,1.6-9.4,2.8-14.1c9.8-37.7,32.7-65.3,67.2-82.7c27.8-14,57.4-16,87.6-9.1 c37.2,8.5,63.7,31.3,81.5,64.1c12,22,15.1,46.3,12.8,71.3c-3,33.9-16.7,62.4-42.3,85c-20.9,18.5-45.5,28.1-73.2,29.5 c-10.1,0.5-20.3,0.2-30.5,0c-2.9,0-4.5,0.8-5.7,3.5c-5.6,11.7-11.4,23.2-17.1,34.8c-1.9,3.8-3.5,7.7-5.2,11.5 c0.8,0.4,1.1,0.7,1.4,0.7c22.8-0.3,45.6-0.1,68.4-1c19.9-0.8,38.7-6.7,56.7-15.2C398.9,416.5,412.1,407.5,424.9,396.4 M278.4,248.2 c-12.7,0-25.3,0.2-38-0.1c-4.2-0.1-5.7,1.3-6.8,5.1c-7.9,28.7-16,57.4-24.1,86.1c-1.4,5-2.8,10-4.4,16c13.2,0,25.4,0,37.6,0 c-2.5,27.6-4.9,54.5-7.3,81.4c0.5,0.1,1.1,0.3,1.6,0.4c19.3-39.2,38.6-78.5,58.5-118.8c-11.3,0-21.4,0-32.1,0 c7.6-23.7,14.9-46.5,22.4-70.1C282.9,248.2,281.1,248.2,278.4,248.2z" transform="matrix(1, 0, 0, 1, -3.552713678800501e-15, 0)"/>
  <path class="st1" d="M424.6,396.7c-12.5,10.8-25.7,19.8-40.4,26.8c-18,8.5-36.8,14.4-56.7,15.2c-22.8,1-45.6,0.7-68.4,1 c-0.3,0-0.6-0.3-1.4-0.7c1.7-3.8,3.3-7.7,5.2-11.5c5.7-11.6,11.6-23.1,17.1-34.8c1.3-2.7,2.8-3.5,5.7-3.5c10.2,0.2,20.3,0.5,30.5,0 c27.7-1.4,52.3-11,73.2-29.5c25.5-22.6,39.2-51.1,42.3-85c2.2-25-0.9-49.3-12.8-71.3c-17.8-32.8-44.2-55.5-81.5-64.1 c-30.2-6.9-59.8-4.9-87.6,9.1c-34.5,17.4-57.4,44.9-67.2,82.7c-1.2,4.6-1.6,9.4-2.8,14.1c-0.4,1.5-2.3,3.6-3.5,3.6 c-15.6,0.2-31.3,0.2-47.7,0.2c0.9-7.3,1.2-14.2,2.6-20.9c5.2-24.2,14.1-46.9,28.6-67.1c26-36.1,60.3-60,103.7-70.9 c17.5-4.4,35.4-6.2,53.3-4.7c35.8,3,69.5,12.7,98,35.7c26.9,21.8,48,48.1,58.7,81.7c4.7,14.8,7.4,30,8.8,45.6 c2.5,28.3-1.7,55.5-11.8,81.8C460.7,355.7,445.2,377.8,424.6,396.7z" transform="matrix(1, 0, 0, 1, -3.552713678800501e-15, 0)"/>
  <path class="st1" d="M278.8,248.2c2.3,0,4.1,0,7.1,0c-7.5,23.6-14.8,46.4-22.4,70.1c10.7,0,20.8,0,32.1,0 c-19.9,40.3-39.2,79.5-58.5,118.8c-0.5-0.1-1.1-0.3-1.6-0.4c2.4-26.9,4.8-53.8,7.3-81.4c-12.2,0-24.4,0-37.6,0 c1.6-5.9,3-10.9,4.4-16c8-28.7,16.2-57.4,24.1-86.1c1-3.8,2.6-5.2,6.8-5.1C253,248.4,265.7,248.2,278.8,248.2z" transform="matrix(1, 0, 0, 1, -3.552713678800501e-15, 0)"/>
</svg>
